<svg width="1080" height="720" viewBox="0 0 1080 720" fill="none" xmlns="http://www.w3.org/2000/svg">
<rect width="1080" height="720" fill="#F5F5F5"/>
<path d="M608.765 305.8C609.565 305.8 610.265 306.125 610.865 306.775L616.64 313C612.24 318.1 606.89 322.075 600.59 324.925C594.34 327.775 586.765 329.2 577.865 329.2C570.165 329.2 563.165 327.875 556.865 325.225C550.565 322.525 545.19 318.775 540.74 313.975C536.29 309.125 532.84 303.325 530.39 296.575C527.94 289.825 526.715 282.4 526.715 274.3C526.715 266.2 527.99 258.775 530.54 252.025C533.09 245.275 536.665 239.475 541.265 234.625C545.915 229.775 551.465 226.025 557.915 223.375C564.365 220.675 571.49 219.325 579.29 219.325C586.94 219.325 593.69 220.55 599.54 223C605.39 225.45 610.54 228.775 614.99 232.975L610.19 239.65C609.89 240.15 609.49 240.575 608.99 240.925C608.54 241.225 607.915 241.375 607.115 241.375C606.215 241.375 605.115 240.9 603.815 239.95C602.515 238.95 600.815 237.85 598.715 236.65C596.615 235.45 593.99 234.375 590.84 233.425C587.69 232.425 583.815 231.925 579.215 231.925C573.665 231.925 568.59 232.9 563.99 234.85C559.39 236.75 555.415 239.525 552.065 243.175C548.765 246.825 546.19 251.275 544.34 256.525C542.49 261.775 541.565 267.7 541.565 274.3C541.565 281 542.515 286.975 544.415 292.225C546.365 297.475 548.99 301.925 552.29 305.575C555.64 309.175 559.565 311.925 564.065 313.825C568.615 315.725 573.515 316.675 578.765 316.675C581.965 316.675 584.84 316.5 587.39 316.15C589.99 315.75 592.365 315.15 594.515 314.35C596.715 313.55 598.74 312.55 600.59 311.35C602.49 310.1 604.365 308.625 606.215 306.925C607.065 306.175 607.915 305.8 608.765 305.8Z" fill="#001340"/>
<path d="M660.92 250.825C666.47 250.825 671.47 251.75 675.92 253.6C680.37 255.45 684.17 258.075 687.32 261.475C690.47 264.875 692.87 269 694.52 273.85C696.22 278.65 697.07 284.025 697.07 289.975C697.07 295.975 696.22 301.375 694.52 306.175C692.87 310.975 690.47 315.075 687.32 318.475C684.17 321.875 680.37 324.5 675.92 326.35C671.47 328.15 666.47 329.05 660.92 329.05C655.32 329.05 650.27 328.15 645.77 326.35C641.32 324.5 637.52 321.875 634.37 318.475C631.22 315.075 628.795 310.975 627.095 306.175C625.445 301.375 624.62 295.975 624.62 289.975C624.62 284.025 625.445 278.65 627.095 273.85C628.795 269 631.22 264.875 634.37 261.475C637.52 258.075 641.32 255.45 645.77 253.6C650.27 251.75 655.32 250.825 660.92 250.825ZM660.92 318.625C668.42 318.625 674.02 316.125 677.72 311.125C681.42 306.075 683.27 299.05 683.27 290.05C683.27 281 681.42 273.95 677.72 268.9C674.02 263.85 668.42 261.325 660.92 261.325C657.12 261.325 653.795 261.975 650.945 263.275C648.145 264.575 645.795 266.45 643.895 268.9C642.045 271.35 640.645 274.375 639.695 277.975C638.795 281.525 638.345 285.55 638.345 290.05C638.345 299.05 640.195 306.075 643.895 311.125C647.645 316.125 653.32 318.625 660.92 318.625Z" fill="#001340"/>
<path d="M776.478 252.025V328H768.528C766.628 328 765.428 327.075 764.928 325.225L763.878 317.05C760.578 320.7 756.878 323.65 752.778 325.9C748.678 328.1 743.978 329.2 738.678 329.2C734.528 329.2 730.853 328.525 727.653 327.175C724.503 325.775 721.853 323.825 719.703 321.325C717.553 318.825 715.928 315.8 714.828 312.25C713.778 308.7 713.253 304.775 713.253 300.475V252.025H726.603V300.475C726.603 306.225 727.903 310.675 730.503 313.825C733.153 316.975 737.178 318.55 742.578 318.55C746.528 318.55 750.203 317.625 753.603 315.775C757.053 313.875 760.228 311.275 763.128 307.975V252.025H776.478Z" fill="#001340"/>
<path d="M810.32 267.25C812.72 262.05 815.67 258 819.17 255.1C822.67 252.15 826.945 250.675 831.995 250.675C833.595 250.675 835.12 250.85 836.57 251.2C838.07 251.55 839.395 252.1 840.545 252.85L839.57 262.825C839.27 264.075 838.52 264.7 837.32 264.7C836.62 264.7 835.595 264.55 834.245 264.25C832.895 263.95 831.37 263.8 829.67 263.8C827.27 263.8 825.12 264.15 823.22 264.85C821.37 265.55 819.695 266.6 818.195 268C816.745 269.35 815.42 271.05 814.22 273.1C813.07 275.1 812.02 277.4 811.07 280V328H797.645V252.025H805.295C806.745 252.025 807.745 252.3 808.295 252.85C808.845 253.4 809.22 254.35 809.42 255.7L810.32 267.25Z" fill="#001340"/>
<path d="M896.095 264.55C895.495 265.65 894.57 266.2 893.32 266.2C892.57 266.2 891.72 265.925 890.77 265.375C889.82 264.825 888.645 264.225 887.245 263.575C885.895 262.875 884.27 262.25 882.37 261.7C880.47 261.1 878.22 260.8 875.62 260.8C873.37 260.8 871.345 261.1 869.545 261.7C867.745 262.25 866.195 263.025 864.895 264.025C863.645 265.025 862.67 266.2 861.97 267.55C861.32 268.85 860.995 270.275 860.995 271.825C860.995 273.775 861.545 275.4 862.645 276.7C863.795 278 865.295 279.125 867.145 280.075C868.995 281.025 871.095 281.875 873.445 282.625C875.795 283.325 878.195 284.1 880.645 284.95C883.145 285.75 885.57 286.65 887.92 287.65C890.27 288.65 892.37 289.9 894.22 291.4C896.07 292.9 897.545 294.75 898.645 296.95C899.795 299.1 900.37 301.7 900.37 304.75C900.37 308.25 899.745 311.5 898.495 314.5C897.245 317.45 895.395 320.025 892.945 322.225C890.495 324.375 887.495 326.075 883.945 327.325C880.395 328.575 876.295 329.2 871.645 329.2C866.345 329.2 861.545 328.35 857.245 326.65C852.945 324.9 849.295 322.675 846.295 319.975L849.445 314.875C849.845 314.225 850.32 313.725 850.87 313.375C851.42 313.025 852.12 312.85 852.97 312.85C853.87 312.85 854.82 313.2 855.82 313.9C856.82 314.6 858.02 315.375 859.42 316.225C860.87 317.075 862.62 317.85 864.67 318.55C866.72 319.25 869.27 319.6 872.32 319.6C874.92 319.6 877.195 319.275 879.145 318.625C881.095 317.925 882.72 317 884.02 315.85C885.32 314.7 886.27 313.375 886.87 311.875C887.52 310.375 887.845 308.775 887.845 307.075C887.845 304.975 887.27 303.25 886.12 301.9C885.02 300.5 883.545 299.325 881.695 298.375C879.845 297.375 877.72 296.525 875.32 295.825C872.97 295.075 870.545 294.3 868.045 293.5C865.595 292.7 863.17 291.8 860.77 290.8C858.42 289.75 856.32 288.45 854.47 286.9C852.62 285.35 851.12 283.45 849.97 281.2C848.87 278.9 848.32 276.125 848.32 272.875C848.32 269.975 848.92 267.2 850.12 264.55C851.32 261.85 853.07 259.5 855.37 257.5C857.67 255.45 860.495 253.825 863.845 252.625C867.195 251.425 871.02 250.825 875.32 250.825C880.32 250.825 884.795 251.625 888.745 253.225C892.745 254.775 896.195 256.925 899.095 259.675L896.095 264.55Z" fill="#001340"/>
<path d="M967.587 281.725C967.587 278.625 967.137 275.8 966.237 273.25C965.387 270.65 964.112 268.425 962.412 266.575C960.762 264.675 958.737 263.225 956.337 262.225C953.937 261.175 951.212 260.65 948.162 260.65C941.762 260.65 936.687 262.525 932.937 266.275C929.237 269.975 926.937 275.125 926.037 281.725H967.587ZM978.387 317.35C976.737 319.35 974.762 321.1 972.462 322.6C970.162 324.05 967.687 325.25 965.037 326.2C962.437 327.15 959.737 327.85 956.937 328.3C954.137 328.8 951.362 329.05 948.612 329.05C943.362 329.05 938.512 328.175 934.062 326.425C929.662 324.625 925.837 322.025 922.587 318.625C919.387 315.175 916.887 310.925 915.087 305.875C913.287 300.825 912.387 295.025 912.387 288.475C912.387 283.175 913.187 278.225 914.787 273.625C916.437 269.025 918.787 265.05 921.837 261.7C924.887 258.3 928.612 255.65 933.012 253.75C937.412 251.8 942.362 250.825 947.862 250.825C952.412 250.825 956.612 251.6 960.462 253.15C964.362 254.65 967.712 256.85 970.512 259.75C973.362 262.6 975.587 266.15 977.187 270.4C978.787 274.6 979.587 279.4 979.587 284.8C979.587 286.9 979.362 288.3 978.912 289C978.462 289.7 977.612 290.05 976.362 290.05H925.587C925.737 294.85 926.387 299.025 927.537 302.575C928.737 306.125 930.387 309.1 932.487 311.5C934.587 313.85 937.087 315.625 939.987 316.825C942.887 317.975 946.137 318.55 949.737 318.55C953.087 318.55 955.962 318.175 958.362 317.425C960.812 316.625 962.912 315.775 964.662 314.875C966.412 313.975 967.862 313.15 969.012 312.4C970.212 311.6 971.237 311.2 972.087 311.2C973.187 311.2 974.037 311.625 974.637 312.475L978.387 317.35Z" fill="#001340"/>
<path d="M532.52 456.25C536.67 456.25 540.32 455.7 543.47 454.6C546.67 453.5 549.345 451.975 551.495 450.025C553.695 448.025 555.345 445.65 556.445 442.9C557.545 440.15 558.095 437.125 558.095 433.825C558.095 426.975 555.97 421.625 551.72 417.775C547.52 413.925 541.12 412 532.52 412H515.27V456.25H532.52ZM532.52 400.525C539.32 400.525 545.22 401.325 550.22 402.925C555.27 404.475 559.445 406.7 562.745 409.6C566.045 412.5 568.495 416 570.095 420.1C571.745 424.2 572.57 428.775 572.57 433.825C572.57 438.825 571.695 443.4 569.945 447.55C568.195 451.7 565.62 455.275 562.22 458.275C558.87 461.275 554.695 463.625 549.695 465.325C544.745 466.975 539.02 467.8 532.52 467.8H515.27V508H500.795V400.525H532.52Z" fill="#001340"/>
<path d="M598.943 447.25C601.343 442.05 604.293 438 607.793 435.1C611.293 432.15 615.568 430.675 620.618 430.675C622.218 430.675 623.743 430.85 625.193 431.2C626.693 431.55 628.018 432.1 629.168 432.85L628.193 442.825C627.893 444.075 627.143 444.7 625.943 444.7C625.243 444.7 624.218 444.55 622.868 444.25C621.518 443.95 619.993 443.8 618.293 443.8C615.893 443.8 613.743 444.15 611.843 444.85C609.993 445.55 608.318 446.6 606.818 448C605.368 449.35 604.043 451.05 602.843 453.1C601.693 455.1 600.643 457.4 599.693 460V508H586.268V432.025H593.918C595.368 432.025 596.368 432.3 596.918 432.85C597.468 433.4 597.843 434.35 598.043 435.7L598.943 447.25Z" fill="#001340"/>
<path d="M669.856 430.825C675.406 430.825 680.406 431.75 684.856 433.6C689.306 435.45 693.106 438.075 696.256 441.475C699.406 444.875 701.806 449 703.456 453.85C705.156 458.65 706.006 464.025 706.006 469.975C706.006 475.975 705.156 481.375 703.456 486.175C701.806 490.975 699.406 495.075 696.256 498.475C693.106 501.875 689.306 504.5 684.856 506.35C680.406 508.15 675.406 509.05 669.856 509.05C664.256 509.05 659.206 508.15 654.706 506.35C650.256 504.5 646.456 501.875 643.306 498.475C640.156 495.075 637.731 490.975 636.031 486.175C634.381 481.375 633.556 475.975 633.556 469.975C633.556 464.025 634.381 458.65 636.031 453.85C637.731 449 640.156 444.875 643.306 441.475C646.456 438.075 650.256 435.45 654.706 433.6C659.206 431.75 664.256 430.825 669.856 430.825ZM669.856 498.625C677.356 498.625 682.956 496.125 686.656 491.125C690.356 486.075 692.206 479.05 692.206 470.05C692.206 461 690.356 453.95 686.656 448.9C682.956 443.85 677.356 441.325 669.856 441.325C666.056 441.325 662.731 441.975 659.881 443.275C657.081 444.575 654.731 446.45 652.831 448.9C650.981 451.35 649.581 454.375 648.631 457.975C647.731 461.525 647.281 465.55 647.281 470.05C647.281 479.05 649.131 486.075 652.831 491.125C656.581 496.125 662.256 498.625 669.856 498.625Z" fill="#001340"/>
<path d="M737.038 432.025V513.625C737.038 516.675 736.638 519.5 735.838 522.1C735.038 524.75 733.763 527.05 732.013 529C730.263 530.95 728.013 532.475 725.263 533.575C722.563 534.725 719.313 535.3 715.513 535.3C713.913 535.3 712.438 535.175 711.088 534.925C709.738 534.675 708.388 534.3 707.038 533.8L707.563 526.6C707.663 526.15 707.838 525.8 708.088 525.55C708.288 525.35 708.588 525.225 708.988 525.175C709.388 525.125 709.913 525.1 710.563 525.1C711.163 525.15 711.938 525.175 712.888 525.175C716.788 525.175 719.563 524.25 721.213 522.4C722.863 520.6 723.688 517.675 723.688 513.625V432.025H737.038ZM739.813 408.175C739.813 409.475 739.538 410.7 738.988 411.85C738.488 412.95 737.788 413.95 736.888 414.85C736.038 415.7 735.038 416.375 733.888 416.875C732.738 417.375 731.513 417.625 730.213 417.625C728.913 417.625 727.688 417.375 726.538 416.875C725.438 416.375 724.463 415.7 723.613 414.85C722.763 413.95 722.088 412.95 721.588 411.85C721.088 410.7 720.838 409.475 720.838 408.175C720.838 406.875 721.088 405.65 721.588 404.5C722.088 403.3 722.763 402.275 723.613 401.425C724.463 400.525 725.438 399.825 726.538 399.325C727.688 398.825 728.913 398.575 730.213 398.575C731.513 398.575 732.738 398.825 733.888 399.325C735.038 399.825 736.038 400.525 736.888 401.425C737.788 402.275 738.488 403.3 738.988 404.5C739.538 405.65 739.813 406.875 739.813 408.175Z" fill="#001340"/>
<path d="M809.823 461.725C809.823 458.625 809.373 455.8 808.473 453.25C807.623 450.65 806.348 448.425 804.648 446.575C802.998 444.675 800.973 443.225 798.573 442.225C796.173 441.175 793.448 440.65 790.398 440.65C783.998 440.65 778.923 442.525 775.173 446.275C771.473 449.975 769.173 455.125 768.273 461.725H809.823ZM820.623 497.35C818.973 499.35 816.998 501.1 814.698 502.6C812.398 504.05 809.923 505.25 807.273 506.2C804.673 507.15 801.973 507.85 799.173 508.3C796.373 508.8 793.598 509.05 790.848 509.05C785.598 509.05 780.748 508.175 776.298 506.425C771.898 504.625 768.073 502.025 764.823 498.625C761.623 495.175 759.123 490.925 757.323 485.875C755.523 480.825 754.623 475.025 754.623 468.475C754.623 463.175 755.423 458.225 757.023 453.625C758.673 449.025 761.023 445.05 764.073 441.7C767.123 438.3 770.848 435.65 775.248 433.75C779.648 431.8 784.598 430.825 790.098 430.825C794.648 430.825 798.848 431.6 802.698 433.15C806.598 434.65 809.948 436.85 812.748 439.75C815.598 442.6 817.823 446.15 819.423 450.4C821.023 454.6 821.823 459.4 821.823 464.8C821.823 466.9 821.598 468.3 821.148 469C820.698 469.7 819.848 470.05 818.598 470.05H767.823C767.973 474.85 768.623 479.025 769.773 482.575C770.973 486.125 772.623 489.1 774.723 491.5C776.823 493.85 779.323 495.625 782.223 496.825C785.123 497.975 788.373 498.55 791.973 498.55C795.323 498.55 798.198 498.175 800.598 497.425C803.048 496.625 805.148 495.775 806.898 494.875C808.648 493.975 810.098 493.15 811.248 492.4C812.448 491.6 813.473 491.2 814.323 491.2C815.423 491.2 816.273 491.625 816.873 492.475L820.623 497.35Z" fill="#001340"/>
<path d="M891.096 445.525C890.696 446.075 890.296 446.5 889.896 446.8C889.496 447.1 888.946 447.25 888.246 447.25C887.496 447.25 886.671 446.95 885.771 446.35C884.871 445.7 883.746 445 882.396 444.25C881.096 443.5 879.471 442.825 877.521 442.225C875.621 441.575 873.271 441.25 870.471 441.25C866.721 441.25 863.421 441.925 860.571 443.275C857.721 444.575 855.321 446.475 853.371 448.975C851.471 451.475 850.021 454.5 849.021 458.05C848.071 461.6 847.596 465.575 847.596 469.975C847.596 474.575 848.122 478.675 849.172 482.275C850.222 485.825 851.696 488.825 853.596 491.275C855.546 493.675 857.871 495.525 860.571 496.825C863.321 498.075 866.397 498.7 869.797 498.7C873.047 498.7 875.721 498.325 877.821 497.575C879.921 496.775 881.646 495.9 882.996 494.95C884.396 494 885.546 493.15 886.446 492.4C887.396 491.6 888.321 491.2 889.221 491.2C890.321 491.2 891.171 491.625 891.771 492.475L895.521 497.35C893.871 499.4 891.996 501.15 889.896 502.6C887.796 504.05 885.521 505.275 883.071 506.275C880.671 507.225 878.146 507.925 875.496 508.375C872.846 508.825 870.146 509.05 867.396 509.05C862.646 509.05 858.221 508.175 854.121 506.425C850.071 504.675 846.547 502.15 843.547 498.85C840.547 495.5 838.196 491.4 836.496 486.55C834.796 481.7 833.946 476.175 833.946 469.975C833.946 464.325 834.721 459.1 836.271 454.3C837.871 449.5 840.172 445.375 843.172 441.925C846.222 438.425 849.946 435.7 854.346 433.75C858.796 431.8 863.896 430.825 869.646 430.825C874.996 430.825 879.696 431.7 883.746 433.45C887.846 435.15 891.471 437.575 894.621 440.725L891.096 445.525Z" fill="#001340"/>
<path d="M933.177 509.2C927.177 509.2 922.552 507.525 919.302 504.175C916.102 500.825 914.502 496 914.502 489.7V443.2H905.352C904.552 443.2 903.877 442.975 903.327 442.525C902.777 442.025 902.502 441.275 902.502 440.275V434.95L914.952 433.375L918.027 409.9C918.177 409.15 918.502 408.55 919.002 408.1C919.552 407.6 920.252 407.35 921.102 407.35H927.852V433.525H949.827V443.2H927.852V488.8C927.852 492 928.627 494.375 930.177 495.925C931.727 497.475 933.727 498.25 936.177 498.25C937.577 498.25 938.777 498.075 939.777 497.725C940.827 497.325 941.727 496.9 942.477 496.45C943.227 496 943.852 495.6 944.352 495.25C944.902 494.85 945.377 494.65 945.777 494.65C946.477 494.65 947.102 495.075 947.652 495.925L951.552 502.3C949.252 504.45 946.477 506.15 943.227 507.4C939.977 508.6 936.627 509.2 933.177 509.2Z" fill="#001340"/>
<path d="M1007.86 444.55C1007.26 445.65 1006.34 446.2 1005.09 446.2C1004.34 446.2 1003.49 445.925 1002.54 445.375C1001.59 444.825 1000.41 444.225 999.012 443.575C997.662 442.875 996.037 442.25 994.137 441.7C992.237 441.1 989.987 440.8 987.387 440.8C985.137 440.8 983.112 441.1 981.312 441.7C979.512 442.25 977.962 443.025 976.662 444.025C975.412 445.025 974.437 446.2 973.737 447.55C973.087 448.85 972.762 450.275 972.762 451.825C972.762 453.775 973.312 455.4 974.412 456.7C975.562 458 977.062 459.125 978.912 460.075C980.762 461.025 982.862 461.875 985.212 462.625C987.562 463.325 989.962 464.1 992.412 464.95C994.912 465.75 997.337 466.65 999.687 467.65C1002.04 468.65 1004.14 469.9 1005.99 471.4C1007.84 472.9 1009.31 474.75 1010.41 476.95C1011.56 479.1 1012.14 481.7 1012.14 484.75C1012.14 488.25 1011.51 491.5 1010.26 494.5C1009.01 497.45 1007.16 500.025 1004.71 502.225C1002.26 504.375 999.262 506.075 995.712 507.325C992.162 508.575 988.062 509.2 983.412 509.2C978.112 509.2 973.312 508.35 969.012 506.65C964.712 504.9 961.062 502.675 958.062 499.975L961.212 494.875C961.612 494.225 962.087 493.725 962.637 493.375C963.187 493.025 963.887 492.85 964.737 492.85C965.637 492.85 966.587 493.2 967.587 493.9C968.587 494.6 969.787 495.375 971.187 496.225C972.637 497.075 974.387 497.85 976.437 498.55C978.487 499.25 981.037 499.6 984.087 499.6C986.687 499.6 988.962 499.275 990.912 498.625C992.862 497.925 994.487 497 995.787 495.85C997.087 494.7 998.037 493.375 998.637 491.875C999.287 490.375 999.612 488.775 999.612 487.075C999.612 484.975 999.037 483.25 997.887 481.9C996.787 480.5 995.312 479.325 993.462 478.375C991.612 477.375 989.487 476.525 987.087 475.825C984.737 475.075 982.312 474.3 979.812 473.5C977.362 472.7 974.937 471.8 972.537 470.8C970.187 469.75 968.087 468.45 966.237 466.9C964.387 465.35 962.887 463.45 961.737 461.2C960.637 458.9 960.087 456.125 960.087 452.875C960.087 449.975 960.687 447.2 961.887 444.55C963.087 441.85 964.837 439.5 967.137 437.5C969.437 435.45 972.262 433.825 975.612 432.625C978.962 431.425 982.787 430.825 987.087 430.825C992.087 430.825 996.562 431.625 1000.51 433.225C1004.51 434.775 1007.96 436.925 1010.86 439.675L1007.86 444.55Z" fill="#001340"/>
<path d="M20 28C20 23.5817 23.5817 20 28 20H427C431.418 20 435 23.5817 435 28V692C435 696.418 431.418 700 427 700H28C23.5817 700 20 696.418 20 692V28Z" fill="#001340"/>
<path d="M230.238 439.16C231.998 439.16 233.538 439.875 234.858 441.305L247.563 455C237.883 466.22 226.113 474.965 212.253 481.235C198.503 487.505 181.838 490.64 162.258 490.64C145.318 490.64 129.918 487.725 116.058 481.895C102.198 475.955 90.3727 467.705 80.5827 457.145C70.7927 446.475 63.2027 433.715 57.8127 418.865C52.4227 404.015 49.7277 387.68 49.7277 369.86C49.7277 352.04 52.5327 335.705 58.1427 320.855C63.7527 306.005 71.6177 293.245 81.7377 282.575C91.9677 271.905 104.178 263.655 118.368 257.825C132.558 251.885 148.233 248.915 165.393 248.915C182.223 248.915 197.073 251.61 209.943 257C222.813 262.39 234.143 269.705 243.933 278.945L233.373 293.63C232.713 294.73 231.833 295.665 230.733 296.435C229.743 297.095 228.368 297.425 226.608 297.425C224.628 297.425 222.208 296.38 219.348 294.29C216.488 292.09 212.748 289.67 208.128 287.03C203.508 284.39 197.733 282.025 190.803 279.935C183.873 277.735 175.348 276.635 165.228 276.635C153.018 276.635 141.853 278.78 131.733 283.07C121.613 287.25 112.868 293.355 105.498 301.385C98.2377 309.415 92.5727 319.205 88.5027 330.755C84.4327 342.305 82.3977 355.34 82.3977 369.86C82.3977 384.6 84.4877 397.745 88.6677 409.295C92.9577 420.845 98.7327 430.635 105.993 438.665C113.363 446.585 121.998 452.635 131.898 456.815C141.908 460.995 152.688 463.085 164.238 463.085C171.278 463.085 177.603 462.7 183.213 461.93C188.933 461.05 194.158 459.73 198.888 457.97C203.728 456.21 208.183 454.01 212.253 451.37C216.433 448.62 220.558 445.375 224.628 441.635C226.498 439.985 228.368 439.16 230.238 439.16Z" fill="white"/>
<path d="M395.227 515.225V535.025H265.207V515.225H395.227Z" fill="white"/>
</svg>
