<svg width="1080" height="720" viewBox="0 0 1080 720" fill="none" xmlns="http://www.w3.org/2000/svg">
<rect x="140" y="213" width="800" height="450" rx="50" fill="black"/>
<rect x="310" y="119" width="460" height="189" rx="60" stroke="black" stroke-width="60"/>
<line x1="140" y1="300" x2="940" y2="300" stroke="white" stroke-width="10"/>
<path d="M387.436 415.955V376.182H545.461V415.955H490.774V558H442.123V415.955H387.436ZM544.038 558V376.182H622.873C636.723 376.182 648.353 378.046 657.763 381.775C667.233 385.504 674.365 390.771 679.159 397.577C684.012 404.384 686.439 412.403 686.439 421.636C686.439 428.324 684.959 434.42 682 439.925C679.1 445.429 675.016 450.045 669.748 453.774C664.481 457.444 658.325 459.989 651.282 461.409V463.185C659.095 463.481 666.197 465.463 672.589 469.133C678.981 472.743 684.071 477.744 687.859 484.136C691.647 490.469 693.541 497.927 693.541 506.509C693.541 516.452 690.937 525.3 685.728 533.053C680.579 540.807 673.24 546.903 663.711 551.342C654.183 555.781 642.819 558 629.62 558H544.038ZM593.399 518.582H616.481C624.767 518.582 630.982 517.044 635.125 513.966C639.268 510.829 641.339 506.213 641.339 500.116C641.339 495.855 640.363 492.245 638.41 489.286C636.456 486.326 633.675 484.077 630.064 482.538C626.513 481 622.222 480.23 617.191 480.23H593.399V518.582ZM593.399 449.69H613.64C617.961 449.69 621.778 449.01 625.093 447.648C628.407 446.287 630.982 444.334 632.816 441.789C634.71 439.185 635.657 436.018 635.657 432.29C635.657 426.667 633.645 422.376 629.62 419.417C625.596 416.398 620.506 414.889 614.351 414.889H593.399V449.69Z" fill="white"/>
</svg>
