<svg width="1080" height="175" viewBox="0 0 1080 175" fill="none" xmlns="http://www.w3.org/2000/svg">
<g clip-path="url(#clip0_2_14)">
<path d="M7.45864 57.6136V34.5455H99.1135V57.6136H67.3947V140H39.1774V57.6136H7.45864ZM195.491 87.2727C195.491 99.0128 193.208 108.916 188.643 116.983C184.077 125.016 177.915 131.109 170.157 135.263C162.399 139.382 153.749 141.442 144.206 141.442C134.594 141.442 125.909 139.365 118.151 135.211C110.427 131.023 104.283 124.913 99.717 116.88C95.1857 108.813 92.9201 98.9441 92.9201 87.2727C92.9201 75.5327 95.1857 65.6463 99.717 57.6136C104.283 49.5466 110.427 43.4535 118.151 39.3342C125.909 35.1805 134.594 33.1037 144.206 33.1037C153.749 33.1037 162.399 35.1805 170.157 39.3342C177.915 43.4535 184.077 49.5466 188.643 57.6136C193.208 65.6463 195.491 75.5327 195.491 87.2727ZM166.038 87.2727C166.038 80.9564 165.197 75.6357 163.515 71.3104C161.867 66.9508 159.413 63.6553 156.152 61.424C152.925 59.1584 148.943 58.0256 144.206 58.0256C139.468 58.0256 135.469 59.1584 132.208 61.424C128.981 63.6553 126.527 66.9508 124.845 71.3104C123.197 75.6357 122.373 80.9564 122.373 87.2727C122.373 93.589 123.197 98.927 124.845 103.287C126.527 107.612 128.981 110.907 132.208 113.173C135.469 115.404 139.468 116.52 144.206 116.52C148.943 116.52 152.925 115.404 156.152 113.173C159.413 110.907 161.867 107.612 163.515 103.287C165.197 98.927 166.038 93.589 166.038 87.2727ZM299.296 87.2727C299.296 99.0128 297.014 108.916 292.448 116.983C287.882 125.016 281.721 131.109 273.963 135.263C266.205 139.382 257.554 141.442 248.011 141.442C238.399 141.442 229.714 139.365 221.956 135.211C214.232 131.023 208.088 124.913 203.522 116.88C198.991 108.813 196.725 98.9441 196.725 87.2727C196.725 75.5327 198.991 65.6463 203.522 57.6136C208.088 49.5466 214.232 43.4535 221.956 39.3342C229.714 35.1805 238.399 33.1037 248.011 33.1037C257.554 33.1037 266.205 35.1805 273.963 39.3342C281.721 43.4535 287.882 49.5466 292.448 57.6136C297.014 65.6463 299.296 75.5327 299.296 87.2727ZM269.843 87.2727C269.843 80.9564 269.002 75.6357 267.32 71.3104C265.672 66.9508 263.218 63.6553 259.957 61.424C256.73 59.1584 252.748 58.0256 248.011 58.0256C243.274 58.0256 239.274 59.1584 236.013 61.424C232.787 63.6553 230.332 66.9508 228.65 71.3104C227.002 75.6357 226.178 80.9564 226.178 87.2727C226.178 93.589 227.002 98.927 228.65 103.287C230.332 107.612 232.787 110.907 236.013 113.173C239.274 115.404 243.274 116.52 248.011 116.52C252.748 116.52 256.73 115.404 259.957 113.173C263.218 110.907 265.672 107.612 267.32 103.287C269.002 98.927 269.843 93.589 269.843 87.2727ZM300.943 140V34.5455H329.572V116.932H372.207V140H300.943ZM372.179 140V34.5455H417.904C425.937 34.5455 432.682 35.6268 438.14 37.7894C443.632 39.9521 447.769 43.0072 450.55 46.9549C453.364 50.9026 454.772 55.554 454.772 60.9091C454.772 64.7881 453.914 68.3239 452.197 71.5163C450.515 74.7088 448.147 77.3864 445.091 79.549C442.036 81.6773 438.466 83.1534 434.381 83.9773V85.0071C438.912 85.1787 443.032 86.3287 446.739 88.457C450.447 90.551 453.399 93.4517 455.596 97.1591C457.793 100.832 458.891 105.157 458.891 110.135C458.891 115.902 457.381 121.034 454.36 125.531C451.373 130.028 447.117 133.564 441.59 136.138C436.063 138.713 429.472 140 421.817 140H372.179ZM400.809 117.138H414.197C419.002 117.138 422.607 116.245 425.01 114.46C427.413 112.641 428.614 109.963 428.614 106.428C428.614 103.956 428.048 101.862 426.915 100.146C425.782 98.4292 424.169 97.1248 422.075 96.2322C420.015 95.3397 417.526 94.8935 414.608 94.8935H400.809V117.138ZM400.809 77.1804H412.549C415.055 77.1804 417.269 76.7856 419.191 75.9961C421.114 75.2066 422.607 74.0737 423.671 72.5977C424.769 71.0872 425.319 69.2507 425.319 67.0881C425.319 63.8269 424.152 61.3382 421.817 59.6218C419.483 57.8711 416.531 56.9957 412.961 56.9957H400.809V77.1804ZM559.594 87.2727C559.594 99.0128 557.311 108.916 552.746 116.983C548.18 125.016 542.018 131.109 534.26 135.263C526.502 139.382 517.852 141.442 508.309 141.442C498.697 141.442 490.012 139.365 482.254 135.211C474.53 131.023 468.385 124.913 463.82 116.88C459.289 108.813 457.023 98.9441 457.023 87.2727C457.023 75.5327 459.289 65.6463 463.82 57.6136C468.385 49.5466 474.53 43.4535 482.254 39.3342C490.012 35.1805 498.697 33.1037 508.309 33.1037C517.852 33.1037 526.502 35.1805 534.26 39.3342C542.018 43.4535 548.18 49.5466 552.746 57.6136C557.311 65.6463 559.594 75.5327 559.594 87.2727ZM530.141 87.2727C530.141 80.9564 529.3 75.6357 527.618 71.3104C525.97 66.9508 523.516 63.6553 520.255 61.424C517.028 59.1584 513.046 58.0256 508.309 58.0256C503.571 58.0256 499.572 59.1584 496.311 61.424C493.084 63.6553 490.63 66.9508 488.948 71.3104C487.3 75.6357 486.476 80.9564 486.476 87.2727C486.476 93.589 487.3 98.927 488.948 103.287C490.63 107.612 493.084 110.907 496.311 113.173C499.572 115.404 503.571 116.52 508.309 116.52C513.046 116.52 517.028 115.404 520.255 113.173C523.516 110.907 525.97 107.612 527.618 103.287C529.3 98.927 530.141 93.589 530.141 87.2727ZM584.849 34.5455L602.15 65.2344H602.974L620.481 34.5455H652.406L620.893 87.2727L653.642 140H620.893L602.974 108.693H602.15L584.231 140H551.689L584.025 87.2727L552.718 34.5455H584.849ZM768.889 74.0909H739.848C739.642 71.688 739.093 69.5082 738.2 67.5515C737.342 65.5948 736.141 63.9128 734.596 62.5053C733.086 61.0636 731.249 59.9651 729.086 59.2099C726.924 58.4203 724.469 58.0256 721.723 58.0256C716.917 58.0256 712.849 59.1927 709.52 61.527C706.224 63.8613 703.718 67.2082 702.002 71.5678C700.32 75.9274 699.479 81.1624 699.479 87.2727C699.479 93.7263 700.337 99.1329 702.053 103.493C703.804 107.818 706.327 111.079 709.623 113.276C712.918 115.439 716.883 116.52 721.517 116.52C724.16 116.52 726.529 116.194 728.623 115.542C730.717 114.855 732.536 113.877 734.081 112.607C735.626 111.336 736.879 109.809 737.84 108.024C738.836 106.204 739.505 104.162 739.848 101.896L768.889 102.102C768.546 106.565 767.293 111.113 765.131 115.748C762.968 120.347 759.896 124.604 755.914 128.517C751.966 132.396 747.074 135.52 741.238 137.889C735.403 140.257 728.623 141.442 720.899 141.442C711.219 141.442 702.534 139.365 694.845 135.211C687.19 131.058 681.131 124.947 676.668 116.88C672.24 108.813 670.026 98.9441 670.026 87.2727C670.026 75.5327 672.291 65.6463 676.823 57.6136C681.354 49.5466 687.464 43.4535 695.154 39.3342C702.843 35.1805 711.425 33.1037 720.899 33.1037C727.559 33.1037 733.686 34.0134 739.282 35.8327C744.877 37.6521 749.786 40.3125 754.008 43.8139C758.231 47.281 761.629 51.5548 764.204 56.6353C766.778 61.7158 768.34 67.5343 768.889 74.0909ZM872.437 87.2727C872.437 99.0128 870.154 108.916 865.589 116.983C861.023 125.016 854.861 131.109 847.103 135.263C839.345 139.382 830.695 141.442 821.152 141.442C811.54 141.442 802.855 139.365 795.097 135.211C787.373 131.023 781.229 124.913 776.663 116.88C772.132 108.813 769.866 98.9441 769.866 87.2727C769.866 75.5327 772.132 65.6463 776.663 57.6136C781.229 49.5466 787.373 43.4535 795.097 39.3342C802.855 35.1805 811.54 33.1037 821.152 33.1037C830.695 33.1037 839.345 35.1805 847.103 39.3342C854.861 43.4535 861.023 49.5466 865.589 57.6136C870.154 65.6463 872.437 75.5327 872.437 87.2727ZM842.984 87.2727C842.984 80.9564 842.143 75.6357 840.461 71.3104C838.813 66.9508 836.359 63.6553 833.098 61.424C829.871 59.1584 825.889 58.0256 821.152 58.0256C816.414 58.0256 812.415 59.1584 809.154 61.424C805.927 63.6553 803.473 66.9508 801.791 71.3104C800.143 75.6357 799.319 80.9564 799.319 87.2727C799.319 93.589 800.143 98.927 801.791 103.287C803.473 107.612 805.927 110.907 809.154 113.173C812.415 115.404 816.414 116.52 821.152 116.52C825.889 116.52 829.871 115.404 833.098 113.173C836.359 110.907 838.813 107.612 840.461 103.287C842.143 98.927 842.984 93.589 842.984 87.2727ZM874.083 140V34.5455H919.602C927.429 34.5455 934.277 35.97 940.147 38.8192C946.017 41.6684 950.583 45.7706 953.844 51.1257C957.105 56.4808 958.735 62.9001 958.735 70.3835C958.735 77.9356 957.053 84.3034 953.689 89.4869C950.359 94.6703 945.674 98.5837 939.632 101.227C933.625 103.87 926.605 105.192 918.572 105.192H891.385V82.9474H912.805C916.169 82.9474 919.035 82.5355 921.404 81.7116C923.807 80.8535 925.644 79.4975 926.914 77.6438C928.218 75.7901 928.87 73.37 928.87 70.3835C928.87 67.3627 928.218 64.9083 926.914 63.0202C925.644 61.0979 923.807 59.6905 921.404 58.7979C919.035 57.8711 916.169 57.4077 912.805 57.4077H902.713V140H874.083ZM935.873 91.598L962.237 140H931.136L905.39 91.598H935.873ZM959.339 140V34.5455H1004.86C1012.68 34.5455 1019.53 36.0902 1025.4 39.1797C1031.27 42.2692 1035.84 46.6116 1039.1 52.207C1042.36 57.8024 1043.99 64.3419 1043.99 71.8253C1043.99 79.3774 1042.31 85.9168 1038.94 91.4435C1035.61 96.9703 1030.93 101.227 1024.89 104.213C1018.88 107.2 1011.86 108.693 1003.83 108.693H976.64V86.4489H998.06C1001.42 86.4489 1004.29 85.8653 1006.66 84.6982C1009.06 83.4967 1010.9 81.7975 1012.17 79.6005C1013.47 77.4035 1014.13 74.8118 1014.13 71.8253C1014.13 68.8044 1013.47 66.2299 1012.17 64.1016C1010.9 61.9389 1009.06 60.2912 1006.66 59.1584C1004.29 57.9912 1001.42 57.4077 998.06 57.4077H987.968V140H959.339ZM1053.8 141.648C1049.82 141.648 1046.4 140.257 1043.55 137.477C1040.74 134.662 1039.35 131.246 1039.38 127.23C1039.35 123.317 1040.74 119.97 1043.55 117.189C1046.4 114.409 1049.82 113.018 1053.8 113.018C1057.57 113.018 1060.9 114.409 1063.79 117.189C1066.71 119.97 1068.18 123.317 1068.22 127.23C1068.18 129.908 1067.48 132.345 1066.1 134.542C1064.77 136.705 1063.02 138.438 1060.85 139.743C1058.69 141.013 1056.34 141.648 1053.8 141.648Z" fill="black"/>
</g>
<defs>
<clipPath id="clip0_2_14">
<rect width="1080" height="175" fill="white"/>
</clipPath>
</defs>
</svg>
